<svg width="200" height="200" viewBox="0 0 200 200" xmlns="http://www.w3.org/2000/svg">
  <!-- Background -->
  <rect width="200" height="200" fill="none"/>

  <!-- Floral Pattern -->
  <g opacity="0.15" fill="#e490ac">
    <!-- Flower 1 -->
    <path d="M50,50 C55,40 65,40 70,50 C75,40 85,40 90,50 C100,45 100,55 90,60 C100,65 100,75 90,80 C85,90 75,90 70,80 C65,90 55,90 50,80 C40,75 40,65 50,60 C40,55 40,45 50,50 Z"/>

    <!-- Flower 2 -->
    <path d="M150,50 C155,40 165,40 170,50 C175,40 185,40 190,50 C200,45 200,55 190,60 C200,65 200,75 190,80 C185,90 175,90 170,80 C165,90 155,90 150,80 C140,75 140,65 150,60 C140,55 140,45 150,50 Z"/>

    <!-- Flower 3 -->
    <path d="M50,150 C55,140 65,140 70,150 C75,140 85,140 90,150 C100,145 100,155 90,160 C100,165 100,175 90,180 C85,190 75,190 70,180 C65,190 55,190 50,180 C40,175 40,165 50,160 C40,155 40,145 50,150 Z"/>

    <!-- Flower 4 -->
    <path d="M150,150 C155,140 165,140 170,150 C175,140 185,140 190,150 C200,145 200,155 190,160 C200,165 200,175 190,180 C185,190 175,190 170,180 C165,190 155,190 150,180 C140,175 140,165 150,160 C140,155 140,145 150,150 Z"/>

    <!-- Small decorative elements -->
    <circle cx="100" cy="50" r="5"/>
    <circle cx="100" cy="150" r="5"/>
    <circle cx="50" cy="100" r="5"/>
    <circle cx="150" cy="100" r="5"/>

    <!-- Center flower -->
    <path d="M100,100 C105,90 115,90 120,100 C125,90 135,90 140,100 C150,95 150,105 140,110 C150,115 150,125 140,130 C135,140 125,140 120,130 C115,140 105,140 100,130 C90,125 90,115 100,110 C90,105 90,95 100,100 Z"/>
  </g>
</svg>
